# xmcd
#
# Track frame offsets:
#	150
#	16938
#	29624
#	45814
#	61305
#	82376
#	94588
#	109172
#	126167
#	137344
#	154035
#	167424
#	182635
#	194328
#	208918
#	225435
#	242448
#	259919
#
# Disc length: 3667 seconds
#
# Revision: 0
# Processed by: cddbd v1.5.2PL0 Copyright (c) Steve Scherf et al.
# Submitted via: EasyCDDAExtractor 16.0.6.1
#
DISCID=e70e5112
DTITLE=Γιουλάκης Νίκος - Οι βεργούλες-Ν. Γιουλάκης 1
DYEAR=2009
DGENRE=Ρεμπέτικη
TTITLE0=Οι βεργούλες (Τα δυό σου χέρια)[Μάρκος Βαμβακάρης]
TTITLE1=Πέντε Έλληνες στον Άδη [Γ. Παπαϊωάννου-Κώστας Μάνεσης]
TTITLE2=Ο ισοβίτης [Μάρκος Βαμβακάρης]
TTITLE3=Μη μού ξαναφύγεις πια [Βασίλης Τσιτσάνης]
TTITLE4=Ο Πίκινος [Κώστας Ρούκουνας]
TTITLE5=Το ακρογιάλι [[Σπ. Περιστέρης-Μίνως Μάτσας]
TTITLE6=Τα κάστρα του Γεντί Κουλέ (Δραπέτης Γεντί Κουλέ)[Γ. Μητσάκης]
TTITLE7=Η καρδιά του μάγκα [Απόστολος Χαρμαντάς]
TTITLE8=Το πορτοφόλι [Σ. Περιστέρης-ιδίου κ Γ. Πετροπουλέας]
TTITLE9=Από μικρός ορφάνεψα [Λάζαρος Ρούβας]
TTITLE10=Τέτοια ζωή με βάσανα [Μάρκος Βαμβακάρης]
TTITLE11=Το καντήλι [Γιώργος Μητσάκης]
TTITLE12=Πρόσεχε τον Αντώνη [Γιάννης Τάχτας]
TTITLE13=Από την καλοσύνη μου [Στάτος Βαλιάνος-Χαρ. Βασιλειάδης]
TTITLE14=Κρίμα τέτοιο παλληκάρι [Στ. Τζουανάκος-Κώστας Κοφινιώτης]
TTITLE15=Καρδιά μου είσαι ένοχη [Γιάννης Τάχτας-Πέτρος Χάλαρης]
TTITLE16=Ο μπεκρής [Γιάννης Τάχτας-Πέτρος Χάλαρης]
TTITLE17=Η μοναξιά μου βαριά με δένει [Γιάννης Τάχτας-Πέτρος Χάλαρης]
EXTD=
EXTT0=
EXTT1=
EXTT2=
EXTT3=
EXTT4=
EXTT5=
EXTT6=
EXTT7=
EXTT8=
EXTT9=
EXTT10=
EXTT11=
EXTT12=
EXTT13=
EXTT14=
EXTT15=
EXTT16=
EXTT17=
PLAYORDER=
